<svg xmlns="http://www.w3.org/2000/svg" xmlns:xlink="http://www.w3.org/1999/xlink" width="500" zoomAndPan="magnify" viewBox="0 0 375 374.999991" height="500" preserveAspectRatio="xMidYMid meet" version="1.0"><defs><clipPath id="252d5ef5c3"><path d="M 13.734375 29.367188 L 361 29.367188 L 361 345.632812 L 13.734375 345.632812 Z M 13.734375 29.367188 " clip-rule="nonzero"/></clipPath><clipPath id="e0c8e2d40d"><path d="M 30.984375 29.367188 L 344.015625 29.367188 C 353.542969 29.367188 361.265625 37.089844 361.265625 46.617188 L 361.265625 328.382812 C 361.265625 337.910156 353.542969 345.632812 344.015625 345.632812 L 30.984375 345.632812 C 21.457031 345.632812 13.734375 337.910156 13.734375 328.382812 L 13.734375 46.617188 C 13.734375 37.089844 21.457031 29.367188 30.984375 29.367188 Z M 30.984375 29.367188 " clip-rule="nonzero"/></clipPath><clipPath id="c58c6b9454"><path d="M 109.652344 263.554688 L 261.230469 263.554688 L 261.230469 274.179688 L 109.652344 274.179688 Z M 109.652344 263.554688 " clip-rule="nonzero"/></clipPath><clipPath id="c640c693d8"><path d="M 114.964844 263.554688 L 255.917969 263.554688 C 258.851562 263.554688 261.230469 265.933594 261.230469 268.867188 C 261.230469 271.800781 258.851562 274.179688 255.917969 274.179688 L 114.964844 274.179688 C 112.03125 274.179688 109.652344 271.800781 109.652344 268.867188 C 109.652344 265.933594 112.03125 263.554688 114.964844 263.554688 Z M 114.964844 263.554688 " clip-rule="nonzero"/></clipPath><clipPath id="b6f76679a7"><path d="M 86.773438 101.871094 L 288.679688 101.871094 L 288.679688 253.449219 L 86.773438 253.449219 Z M 86.773438 101.871094 " clip-rule="nonzero"/></clipPath><clipPath id="7d7ff7e0b0"><path d="M 104.023438 101.871094 L 270.976562 101.871094 C 280.503906 101.871094 288.226562 109.59375 288.226562 119.121094 L 288.226562 236.199219 C 288.226562 245.726562 280.503906 253.449219 270.976562 253.449219 L 104.023438 253.449219 C 94.496094 253.449219 86.773438 245.726562 86.773438 236.199219 L 86.773438 119.121094 C 86.773438 109.59375 94.496094 101.871094 104.023438 101.871094 Z M 104.023438 101.871094 " clip-rule="nonzero"/></clipPath><clipPath id="1d79c230bf"><path d="M 124.4375 171 L 206 171 L 206 220.945312 L 124.4375 220.945312 Z M 124.4375 171 " clip-rule="nonzero"/></clipPath><clipPath id="440cb41d69"><path d="M 221 134.695312 L 250.4375 134.695312 L 250.4375 164 L 221 164 Z M 221 134.695312 " clip-rule="nonzero"/></clipPath></defs><g clip-path="url(#252d5ef5c3)"><g clip-path="url(#e0c8e2d40d)"><path fill="#1c62ff" d="M 13.734375 29.367188 L 360.886719 29.367188 L 360.886719 345.632812 L 13.734375 345.632812 Z M 13.734375 29.367188 " fill-opacity="1" fill-rule="nonzero"/></g></g><g clip-path="url(#c58c6b9454)"><g clip-path="url(#c640c693d8)"><path fill="#ffffff" d="M 109.652344 263.554688 L 261.230469 263.554688 L 261.230469 274.179688 L 109.652344 274.179688 Z M 109.652344 263.554688 " fill-opacity="1" fill-rule="nonzero"/></g></g><g clip-path="url(#b6f76679a7)"><g clip-path="url(#7d7ff7e0b0)"><path fill="#ffffff" d="M 86.773438 101.871094 L 288.085938 101.871094 L 288.085938 253.449219 L 86.773438 253.449219 Z M 86.773438 101.871094 " fill-opacity="1" fill-rule="nonzero"/></g></g><g clip-path="url(#1d79c230bf)"><path fill="#1c62ff" d="M 205.769531 188.023438 C 205.769531 188.902344 205.738281 189.769531 205.691406 190.628906 L 190.269531 206.050781 C 189.867188 206.453125 189.425781 206.8125 188.949219 207.128906 C 188.476562 207.449219 187.972656 207.714844 187.445312 207.933594 C 186.917969 208.152344 186.371094 208.316406 185.8125 208.429688 C 185.25 208.539062 184.6875 208.59375 184.113281 208.59375 C 183.542969 208.59375 182.976562 208.539062 182.417969 208.429688 C 181.855469 208.316406 181.3125 208.152344 180.785156 207.933594 C 180.253906 207.714844 179.753906 207.449219 179.277344 207.128906 C 178.800781 206.8125 178.363281 206.453125 177.957031 206.050781 L 164.984375 193.066406 C 164.777344 192.859375 164.535156 192.695312 164.261719 192.585938 C 163.988281 192.472656 163.707031 192.414062 163.410156 192.414062 C 163.117188 192.414062 162.832031 192.472656 162.558594 192.585938 C 162.285156 192.695312 162.046875 192.859375 161.835938 193.066406 L 134.3125 220.601562 C 130.242188 217.070312 126.949219 212.917969 124.4375 208.152344 L 157.464844 175.121094 C 157.855469 174.730469 158.28125 174.382812 158.738281 174.074219 C 159.195312 173.765625 159.679688 173.507812 160.191406 173.296875 C 160.699219 173.085938 161.226562 172.925781 161.765625 172.816406 C 162.308594 172.710938 162.855469 172.65625 163.40625 172.65625 C 163.957031 172.65625 164.503906 172.710938 165.046875 172.816406 C 165.585938 172.925781 166.113281 173.085938 166.621094 173.296875 C 167.128906 173.507812 167.613281 173.765625 168.074219 174.074219 C 168.53125 174.382812 168.957031 174.730469 169.34375 175.121094 L 182.546875 188.308594 C 182.753906 188.519531 182.992188 188.679688 183.265625 188.792969 C 183.535156 188.90625 183.820312 188.960938 184.113281 188.960938 C 184.410156 188.960938 184.691406 188.90625 184.964844 188.792969 C 185.234375 188.679688 185.476562 188.519531 185.683594 188.308594 L 202.496094 171.5 C 204.683594 176.789062 205.777344 182.296875 205.769531 188.023438 Z M 205.769531 188.023438 " fill-opacity="1" fill-rule="nonzero"/></g><path fill="#1c62ff" d="M 237.785156 158.535156 L 205.691406 190.628906 C 205.738281 189.769531 205.769531 188.90625 205.769531 188.023438 C 205.777344 182.296875 204.683594 176.789062 202.496094 171.5 L 226.605469 147.386719 L 226.625 147.367188 C 226.835938 147.164062 227.078125 147.007812 227.347656 146.898438 C 227.621094 146.789062 227.902344 146.734375 228.195312 146.738281 C 228.488281 146.738281 228.769531 146.796875 229.039062 146.910156 C 229.308594 147.019531 229.546875 147.179688 229.753906 147.386719 L 237.773438 155.410156 C 237.984375 155.613281 238.144531 155.855469 238.257812 156.125 C 238.371094 156.394531 238.425781 156.675781 238.425781 156.96875 C 238.429688 157.261719 238.371094 157.546875 238.261719 157.816406 C 238.148438 158.089844 237.992188 158.328125 237.785156 158.535156 Z M 237.785156 158.535156 " fill-opacity="1" fill-rule="nonzero"/><g clip-path="url(#440cb41d69)"><path fill="#1c62ff" d="M 247.164062 161.398438 L 250.425781 138.121094 C 250.457031 137.898438 250.460938 137.679688 250.441406 137.457031 C 250.421875 137.234375 250.375 137.019531 250.304688 136.808594 C 250.234375 136.597656 250.140625 136.398438 250.023438 136.207031 C 249.90625 136.019531 249.769531 135.847656 249.613281 135.6875 C 249.457031 135.53125 249.28125 135.394531 249.09375 135.277344 C 248.90625 135.160156 248.703125 135.066406 248.492188 134.996094 C 248.285156 134.925781 248.066406 134.878906 247.847656 134.859375 C 247.625 134.839844 247.402344 134.84375 247.183594 134.875 L 223.90625 138.136719 C 223.367188 138.210938 222.886719 138.425781 222.46875 138.773438 C 222.046875 139.121094 221.753906 139.554688 221.578125 140.070312 C 221.40625 140.585938 221.382812 141.109375 221.507812 141.640625 C 221.632812 142.171875 221.886719 142.628906 222.273438 143.015625 L 242.289062 163.03125 C 242.671875 163.414062 243.132812 163.667969 243.660156 163.792969 C 244.191406 163.917969 244.714844 163.894531 245.230469 163.71875 C 245.746094 163.546875 246.179688 163.25 246.527344 162.832031 C 246.875 162.414062 247.085938 161.9375 247.164062 161.398438 Z M 247.164062 161.398438 " fill-opacity="1" fill-rule="nonzero"/></g></svg>